<svg xmlns="http://www.w3.org/2000/svg" xmlns:xlink="http://www.w3.org/1999/xlink" xmlns:inkscape="http://www.inkscape.org/namespaces/inkscape" version="1.1" width="555.3858" height="408.95045" viewBox="0 0 555.3858 408.95045">
<defs>
<clipPath id="clip_0">
<path transform="matrix(1,0,0,-1,0,408.95045)" d="M45.814 44.751H547.761V403.22203H45.814Z"/>
</clipPath>
<clipPath id="clip_1">
<path transform="matrix(1,0,0,-1,0,408.95045)" d="M45.814 44.751H547.761V403.22203H45.814Z"/>
</clipPath>
<clipPath id="clip_2">
<path transform="matrix(1,0,0,-1,0,408.95045)" d="M45.814 44.751H547.761V403.22203H45.814Z"/>
</clipPath>
<clipPath id="clip_3">
<path transform="matrix(1,0,0,-1,0,408.95045)" d="M45.814 44.751H547.761V403.22203H45.814Z"/>
</clipPath>
<clipPath id="clip_4">
<path transform="matrix(1,0,0,-1,0,408.95045)" d="M45.814 44.751H547.761V403.22203H45.814Z"/>
</clipPath>
<clipPath id="clip_5">
<path transform="matrix(1,0,0,-1,0,408.95045)" d="M45.814 44.751H547.761V403.22203H45.814Z"/>
</clipPath>
<clipPath id="clip_6">
<path transform="matrix(1,0,0,-1,0,408.95045)" d="M45.814 44.751H547.761V403.22203H45.814Z"/>
</clipPath>
<clipPath id="clip_7">
<path transform="matrix(1,0,0,-1,0,408.95045)" d="M45.814 44.751H547.761V403.22203H45.814Z"/>
</clipPath>
<clipPath id="clip_8">
<path transform="matrix(1,0,0,-1,0,408.95045)" d="M45.814 44.751H547.761V403.22203H45.814Z"/>
</clipPath>
<clipPath id="clip_9">
<path transform="matrix(1,0,0,-1,0,408.95045)" d="M45.814 44.751H547.761V403.22203H45.814Z"/>
</clipPath>
<clipPath id="clip_10">
<path transform="matrix(1,0,0,-1,0,408.95045)" d="M45.814 44.751H547.761V403.22203H45.814Z"/>
</clipPath>
<clipPath id="clip_11">
<path transform="matrix(1,0,0,-1,0,408.95045)" d="M45.814 44.751H547.761V403.22203H45.814Z"/>
</clipPath>
<clipPath id="clip_12">
<path transform="matrix(1,0,0,-1,0,408.95045)" d="M45.814 44.751H547.761V403.22203H45.814Z"/>
</clipPath>
<clipPath id="clip_13">
<path transform="matrix(1,0,0,-1,0,408.95045)" d="M45.814 44.751H547.761V403.22203H45.814Z"/>
</clipPath>
<clipPath id="clip_14">
<path transform="matrix(1,0,0,-1,0,408.95045)" d="M45.814 44.751H547.761V403.22203H45.814Z"/>
</clipPath>
<clipPath id="clip_15">
<path transform="matrix(1,0,0,-1,0,408.95045)" d="M45.814 44.751H547.761V403.22203H45.814Z"/>
</clipPath>
<clipPath id="clip_16">
<path transform="matrix(1,0,0,-1,0,408.95045)" d="M45.814 44.751H547.761V403.22203H45.814Z"/>
</clipPath>
<clipPath id="clip_17">
<path transform="matrix(1,0,0,-1,0,408.95045)" d="M45.814 44.751H547.761V403.22203H45.814Z"/>
</clipPath>
<clipPath id="clip_18">
<path transform="matrix(1,0,0,-1,0,408.95045)" d="M45.814 44.751H547.761V403.22203H45.814Z"/>
</clipPath>
<clipPath id="clip_19">
<path transform="matrix(1,0,0,-1,0,408.95045)" d="M45.814 44.751H547.761V403.22203H45.814Z"/>
</clipPath>
<clipPath id="clip_20">
<path transform="matrix(1,0,0,-1,0,408.95045)" d="M45.814 44.751H547.761V403.22203H45.814Z"/>
</clipPath>
<clipPath id="clip_21">
<path transform="matrix(1,0,0,-1,0,408.95045)" d="M45.814 44.751H547.761V403.22203H45.814Z"/>
</clipPath>
<clipPath id="clip_22">
<path transform="matrix(1,0,0,-1,0,408.95045)" d="M45.814 44.751H547.761V403.22203H45.814Z"/>
</clipPath>
<clipPath id="clip_23">
<path transform="matrix(1,0,0,-1,0,408.95045)" d="M45.814 44.751H547.761V403.22203H45.814Z"/>
</clipPath>
<clipPath id="clip_24">
<path transform="matrix(1,0,0,-1,0,408.95045)" d="M45.814 44.751H547.761V403.22203H45.814Z"/>
</clipPath>
<clipPath id="clip_25">
<path transform="matrix(1,0,0,-1,0,408.95045)" d="M45.814 44.751H547.761V403.22203H45.814Z"/>
</clipPath>
<clipPath id="clip_26">
<path transform="matrix(1,0,0,-1,0,408.95045)" d="M45.814 44.751H547.761V403.22203H45.814Z"/>
</clipPath>
<clipPath id="clip_27">
<path transform="matrix(1,0,0,-1,0,408.95045)" d="M45.814 44.751H547.761V403.22203H45.814Z"/>
</clipPath>
<clipPath id="clip_28">
<path transform="matrix(1,0,0,-1,0,408.95045)" d="M45.814 44.751H547.761V403.22203H45.814Z"/>
</clipPath>
<clipPath id="clip_29">
<path transform="matrix(1,0,0,-1,0,408.95045)" d="M45.814 44.751H547.761V403.22203H45.814Z"/>
</clipPath>
<clipPath id="clip_30">
<path transform="matrix(1,0,0,-1,0,408.95045)" d="M45.814 44.751H547.761V403.22203H45.814Z"/>
</clipPath>
<clipPath id="clip_31">
<path transform="matrix(1,0,0,-1,0,408.95045)" d="M45.814 44.751H547.761V403.22203H45.814Z"/>
</clipPath>
<clipPath id="clip_32">
<path transform="matrix(1,0,0,-1,0,408.95045)" d="M45.814 44.751H547.761V403.22203H45.814Z"/>
</clipPath>
<clipPath id="clip_33">
<path transform="matrix(1,0,0,-1,0,408.95045)" d="M45.814 44.751H547.761V403.22203H45.814Z"/>
</clipPath>
</defs>
<path transform="matrix(1,0,0,-1,0,408.95045)" d="M0 0H555.386V408.95H0Z" fill="#ffffff"/>
<path transform="matrix(1,0,0,-1,45.8138,364.19914)" d="M0 0H501.947V358.471H0Z" fill="#ffffff"/>
<g clip-path="url(#clip_0)">
<g>
<path transform="matrix(1,0,0,-1,524.9454,95.64374)" d="M0 0C6.496 0 12.727 2.581 17.321 7.174 21.914 11.768 24.495 17.999 24.495 24.495 24.495 30.991 21.914 37.222 17.321 41.815 12.727 46.409 6.496 48.99 0 48.99-6.496 48.99-12.727 46.409-17.32 41.815-21.914 37.222-24.495 30.991-24.495 24.495-24.495 17.999-21.914 11.768-17.32 7.174-12.727 2.581-6.496 0 0 0Z" fill="#bf1f61" fill-opacity=".6"/>
<path transform="matrix(1,0,0,-1,524.9454,95.64374)" stroke-width="1" stroke-linecap="butt" stroke-linejoin="round" fill="none" stroke="#bf1f61" stroke-opacity=".6" d="M0 0C6.496 0 12.727 2.581 17.321 7.174 21.914 11.768 24.495 17.999 24.495 24.495 24.495 30.991 21.914 37.222 17.321 41.815 12.727 46.409 6.496 48.99 0 48.99-6.496 48.99-12.727 46.409-17.32 41.815-21.914 37.222-24.495 30.991-24.495 24.495-24.495 17.999-21.914 11.768-17.32 7.174-12.727 2.581-6.496 0 0 0Z"/>
</g>
</g>
<g clip-path="url(#clip_1)">
<g>
<path transform="matrix(1,0,0,-1,524.9194,121.62793)" d="M0 0C4.593 0 8.999 1.825 12.247 5.073 15.495 8.321 17.32 12.727 17.32 17.321 17.32 21.914 15.495 26.32 12.247 29.568 8.999 32.816 4.593 34.641 0 34.641-4.593 34.641-8.999 32.816-12.247 29.568-15.496 26.32-17.32 21.914-17.32 17.321-17.32 12.727-15.496 8.321-12.247 5.073-8.999 1.825-4.593 0 0 0Z" fill="#bf1f61" fill-opacity=".6"/>
<path transform="matrix(1,0,0,-1,524.9194,121.62793)" stroke-width="1" stroke-linecap="butt" stroke-linejoin="round" fill="none" stroke="#bf1f61" stroke-opacity=".6" d="M0 0C4.593 0 8.999 1.825 12.247 5.073 15.495 8.321 17.32 12.727 17.32 17.321 17.32 21.914 15.495 26.32 12.247 29.568 8.999 32.816 4.593 34.641 0 34.641-4.593 34.641-8.999 32.816-12.247 29.568-15.496 26.32-17.32 21.914-17.32 17.321-17.32 12.727-15.496 8.321-12.247 5.073-8.999 1.825-4.593 0 0 0Z"/>
</g>
</g>
<g clip-path="url(#clip_2)">
<g>
<path transform="matrix(1,0,0,-1,483.0039,151.50583)" d="M0 0C3.248 0 6.364 1.29 8.66 3.587 10.957 5.884 12.247 8.999 12.247 12.247 12.247 15.496 10.957 18.611 8.66 20.908 6.364 23.204 3.248 24.495 0 24.495-3.248 24.495-6.364 23.204-8.66 20.908-10.957 18.611-12.247 15.496-12.247 12.247-12.247 8.999-10.957 5.884-8.66 3.587-6.364 1.29-3.248 0 0 0Z" fill="#bf1f61" fill-opacity=".6"/>
<path transform="matrix(1,0,0,-1,483.0039,151.50583)" stroke-width="1" stroke-linecap="butt" stroke-linejoin="round" fill="none" stroke="#bf1f61" stroke-opacity=".6" d="M0 0C3.248 0 6.364 1.29 8.66 3.587 10.957 5.884 12.247 8.999 12.247 12.247 12.247 15.496 10.957 18.611 8.66 20.908 6.364 23.204 3.248 24.495 0 24.495-3.248 24.495-6.364 23.204-8.66 20.908-10.957 18.611-12.247 15.496-12.247 12.247-12.247 8.999-10.957 5.884-8.66 3.587-6.364 1.29-3.248 0 0 0Z"/>
</g>
</g>
<g clip-path="url(#clip_3)">
<g>
<path transform="matrix(1,0,0,-1,482.9947,290.41105)" d="M0 0C2.297 0 4.5 .912 6.124 2.537 7.748 4.161 8.66 6.364 8.66 8.66 8.66 10.957 7.748 13.16 6.124 14.784 4.5 16.408 2.297 17.321 0 17.321-2.297 17.321-4.5 16.408-6.124 14.784-7.748 13.16-8.66 10.957-8.66 8.66-8.66 6.364-7.748 4.161-6.124 2.537-4.5 .912-2.297 0 0 0Z" fill="#bf1f61" fill-opacity=".6"/>
<path transform="matrix(1,0,0,-1,482.9947,290.41105)" stroke-width="1" stroke-linecap="butt" stroke-linejoin="round" fill="none" stroke="#bf1f61" stroke-opacity=".6" d="M0 0C2.297 0 4.5 .912 6.124 2.537 7.748 4.161 8.66 6.364 8.66 8.66 8.66 10.957 7.748 13.16 6.124 14.784 4.5 16.408 2.297 17.321 0 17.321-2.297 17.321-4.5 16.408-6.124 14.784-7.748 13.16-8.66 10.957-8.66 8.66-8.66 6.364-7.748 4.161-6.124 2.537-4.5 .912-2.297 0 0 0Z"/>
</g>
</g>
<g clip-path="url(#clip_4)">
<g>
<path transform="matrix(1,0,0,-1,482.9891,342.54133)" d="M0 0C1.624 0 3.182 .645 4.33 1.794 5.478 2.942 6.124 4.5 6.124 6.124 6.124 7.748 5.478 9.305 4.33 10.454 3.182 11.602 1.624 12.247 0 12.247-1.624 12.247-3.182 11.602-4.33 10.454-5.478 9.305-6.124 7.748-6.124 6.124-6.124 4.5-5.478 2.942-4.33 1.794-3.182 .645-1.624 0 0 0Z" fill="#bf1f61" fill-opacity=".6"/>
<path transform="matrix(1,0,0,-1,482.9891,342.54133)" stroke-width="1" stroke-linecap="butt" stroke-linejoin="round" fill="none" stroke="#bf1f61" stroke-opacity=".6" d="M0 0C1.624 0 3.182 .645 4.33 1.794 5.478 2.942 6.124 4.5 6.124 6.124 6.124 7.748 5.478 9.305 4.33 10.454 3.182 11.602 1.624 12.247 0 12.247-1.624 12.247-3.182 11.602-4.33 10.454-5.478 9.305-6.124 7.748-6.124 6.124-6.124 4.5-5.478 2.942-4.33 1.794-3.182 .645-1.624 0 0 0Z"/>
</g>
</g>
<g clip-path="url(#clip_5)">
<g>
<path transform="matrix(1,0,0,-1,245.6016,171.81894)" d="M0 0C6.496 0 12.727 2.581 17.321 7.174 21.914 11.768 24.495 17.999 24.495 24.495 24.495 30.991 21.914 37.222 17.321 41.815 12.727 46.409 6.496 48.99 0 48.99-6.496 48.99-12.727 46.409-17.321 41.815-21.914 37.222-24.495 30.991-24.495 24.495-24.495 17.999-21.914 11.768-17.321 7.174-12.727 2.581-6.496 0 0 0Z" fill="#ffb300" fill-opacity=".6"/>
<path transform="matrix(1,0,0,-1,245.6016,171.81894)" stroke-width="1" stroke-linecap="butt" stroke-linejoin="round" fill="none" stroke="#ffb300" stroke-opacity=".6" d="M0 0C6.496 0 12.727 2.581 17.321 7.174 21.914 11.768 24.495 17.999 24.495 24.495 24.495 30.991 21.914 37.222 17.321 41.815 12.727 46.409 6.496 48.99 0 48.99-6.496 48.99-12.727 46.409-17.321 41.815-21.914 37.222-24.495 30.991-24.495 24.495-24.495 17.999-21.914 11.768-17.321 7.174-12.727 2.581-6.496 0 0 0Z"/>
</g>
</g>
<g clip-path="url(#clip_6)">
<g>
<path transform="matrix(1,0,0,-1,245.6016,196.01074)" d="M0 0C4.593 0 8.999 1.825 12.247 5.073 15.495 8.321 17.321 12.727 17.321 17.321 17.321 21.914 15.495 26.32 12.247 29.568 8.999 32.816 4.593 34.641 0 34.641-4.593 34.641-8.999 32.816-12.247 29.568-15.496 26.32-17.321 21.914-17.321 17.321-17.321 12.727-15.496 8.321-12.247 5.073-8.999 1.825-4.593 0 0 0Z" fill="#ffb300" fill-opacity=".6"/>
<path transform="matrix(1,0,0,-1,245.6016,196.01074)" stroke-width="1" stroke-linecap="butt" stroke-linejoin="round" fill="none" stroke="#ffb300" stroke-opacity=".6" d="M0 0C4.593 0 8.999 1.825 12.247 5.073 15.495 8.321 17.321 12.727 17.321 17.321 17.321 21.914 15.495 26.32 12.247 29.568 8.999 32.816 4.593 34.641 0 34.641-4.593 34.641-8.999 32.816-12.247 29.568-15.496 26.32-17.321 21.914-17.321 17.321-17.321 12.727-15.496 8.321-12.247 5.073-8.999 1.825-4.593 0 0 0Z"/>
</g>
</g>
<g clip-path="url(#clip_7)">
<g>
<path transform="matrix(1,0,0,-1,245.6016,244.70844)" d="M0 0C3.248 0 6.364 1.29 8.66 3.587 10.957 5.884 12.247 8.999 12.247 12.247 12.247 15.496 10.957 18.611 8.66 20.908 6.364 23.204 3.248 24.495 0 24.495-3.248 24.495-6.364 23.204-8.66 20.908-10.957 18.611-12.247 15.496-12.247 12.247-12.247 8.999-10.957 5.884-8.66 3.587-6.364 1.29-3.248 0 0 0Z" fill="#ffb300" fill-opacity=".6"/>
<path transform="matrix(1,0,0,-1,245.6016,244.70844)" stroke-width="1" stroke-linecap="butt" stroke-linejoin="round" fill="none" stroke="#ffb300" stroke-opacity=".6" d="M0 0C3.248 0 6.364 1.29 8.66 3.587 10.957 5.884 12.247 8.999 12.247 12.247 12.247 15.496 10.957 18.611 8.66 20.908 6.364 23.204 3.248 24.495 0 24.495-3.248 24.495-6.364 23.204-8.66 20.908-10.957 18.611-12.247 15.496-12.247 12.247-12.247 8.999-10.957 5.884-8.66 3.587-6.364 1.29-3.248 0 0 0Z"/>
</g>
</g>
<g clip-path="url(#clip_8)">
<g>
<path transform="matrix(1,0,0,-1,245.6016,291.30726)" d="M0 0C2.297 0 4.5 .912 6.124 2.537 7.748 4.161 8.66 6.364 8.66 8.66 8.66 10.957 7.748 13.16 6.124 14.784 4.5 16.408 2.297 17.321 0 17.321-2.297 17.321-4.5 16.408-6.124 14.784-7.748 13.16-8.66 10.957-8.66 8.66-8.66 6.364-7.748 4.161-6.124 2.537-4.5 .912-2.297 0 0 0Z" fill="#ffb300" fill-opacity=".6"/>
<path transform="matrix(1,0,0,-1,245.6016,291.30726)" stroke-width="1" stroke-linecap="butt" stroke-linejoin="round" fill="none" stroke="#ffb300" stroke-opacity=".6" d="M0 0C2.297 0 4.5 .912 6.124 2.537 7.748 4.161 8.66 6.364 8.66 8.66 8.66 10.957 7.748 13.16 6.124 14.784 4.5 16.408 2.297 17.321 0 17.321-2.297 17.321-4.5 16.408-6.124 14.784-7.748 13.16-8.66 10.957-8.66 8.66-8.66 6.364-7.748 4.161-6.124 2.537-4.5 .912-2.297 0 0 0Z"/>
</g>
</g>
<g clip-path="url(#clip_9)">
<g>
<path transform="matrix(1,0,0,-1,245.6016,325.51405)" d="M0 0C1.624 0 3.182 .645 4.33 1.794 5.478 2.942 6.124 4.5 6.124 6.124 6.124 7.748 5.478 9.305 4.33 10.454 3.182 11.602 1.624 12.247 0 12.247-1.624 12.247-3.182 11.602-4.33 10.454-5.478 9.305-6.124 7.748-6.124 6.124-6.124 4.5-5.478 2.942-4.33 1.794-3.182 .645-1.624 0 0 0Z" fill="#ffb300" fill-opacity=".6"/>
<path transform="matrix(1,0,0,-1,245.6016,325.51405)" stroke-width="1" stroke-linecap="butt" stroke-linejoin="round" fill="none" stroke="#ffb300" stroke-opacity=".6" d="M0 0C1.624 0 3.182 .645 4.33 1.794 5.478 2.942 6.124 4.5 6.124 6.124 6.124 7.748 5.478 9.305 4.33 10.454 3.182 11.602 1.624 12.247 0 12.247-1.624 12.247-3.182 11.602-4.33 10.454-5.478 9.305-6.124 7.748-6.124 6.124-6.124 4.5-5.478 2.942-4.33 1.794-3.182 .645-1.624 0 0 0Z"/>
</g>
</g>
<g clip-path="url(#clip_10)">
<g>
<path transform="matrix(1,0,0,-1,259.7722,316.96424)" d="M0 0C1.258 0 2.465 .5 3.354 1.389 4.244 2.279 4.743 3.485 4.743 4.743 4.743 6.001 4.244 7.208 3.354 8.098 2.465 8.987 1.258 9.487 0 9.487-1.258 9.487-2.465 8.987-3.354 8.098-4.244 7.208-4.743 6.001-4.743 4.743-4.743 3.485-4.244 2.279-3.354 1.389-2.465 .5-1.258 0 0 0Z" fill="#bbc258" fill-opacity=".6"/>
<path transform="matrix(1,0,0,-1,259.7722,316.96424)" stroke-width="1" stroke-linecap="butt" stroke-linejoin="round" fill="none" stroke="#bbc258" stroke-opacity=".6" d="M0 0C1.258 0 2.465 .5 3.354 1.389 4.244 2.279 4.743 3.485 4.743 4.743 4.743 6.001 4.244 7.208 3.354 8.098 2.465 8.987 1.258 9.487 0 9.487-1.258 9.487-2.465 8.987-3.354 8.098-4.244 7.208-4.743 6.001-4.743 4.743-4.743 3.485-4.244 2.279-3.354 1.389-2.465 .5-1.258 0 0 0Z"/>
</g>
</g>
<g clip-path="url(#clip_11)">
<g>
<path transform="matrix(1,0,0,-1,194.8977,322.02964)" d="M0 0C.938 0 1.837 .373 2.5 1.036 3.163 1.699 3.536 2.598 3.536 3.536 3.536 4.473 3.163 5.373 2.5 6.036 1.837 6.699 .938 7.071 0 7.071-.938 7.071-1.837 6.699-2.5 6.036-3.163 5.373-3.536 4.473-3.536 3.536-3.536 2.598-3.163 1.699-2.5 1.036-1.837 .373-.938 0 0 0Z" fill="#bbc258" fill-opacity=".6"/>
<path transform="matrix(1,0,0,-1,194.8977,322.02964)" stroke-width="1" stroke-linecap="butt" stroke-linejoin="round" fill="none" stroke="#bbc258" stroke-opacity=".6" d="M0 0C.938 0 1.837 .373 2.5 1.036 3.163 1.699 3.536 2.598 3.536 3.536 3.536 4.473 3.163 5.373 2.5 6.036 1.837 6.699 .938 7.071 0 7.071-.938 7.071-1.837 6.699-2.5 6.036-3.163 5.373-3.536 4.473-3.536 3.536-3.536 2.598-3.163 1.699-2.5 1.036-1.837 .373-.938 0 0 0Z"/>
</g>
</g>
<g clip-path="url(#clip_12)">
<g>
<path transform="matrix(1,0,0,-1,277.7381,64.577548)" d="M0 0-5.499-16.926H-23.296L-8.898-27.386-14.398-44.312 0-33.851 14.398-44.312 8.898-27.386 23.296-16.926H5.499Z" fill="#00b9ff" fill-opacity=".6"/>
<path transform="matrix(1,0,0,-1,277.7381,64.577548)" stroke-width="1" stroke-linecap="butt" stroke-linejoin="round" fill="none" stroke="#00b9ff" stroke-opacity=".6" d="M0 0-5.499-16.926H-23.296L-8.898-27.386-14.398-44.312 0-33.851 14.398-44.312 8.898-27.386 23.296-16.926H5.499Z"/>
</g>
</g>
<g clip-path="url(#clip_13)">
<g>
<path transform="matrix(1,0,0,-1,204.6791,107.59903)" d="M0 0-3.889-11.968H-16.473L-6.292-19.365-10.181-31.333 0-23.936 10.181-31.333 6.292-19.365 16.473-11.968H3.889Z" fill="#00b9ff" fill-opacity=".6"/>
<path transform="matrix(1,0,0,-1,204.6791,107.59903)" stroke-width="1" stroke-linecap="butt" stroke-linejoin="round" fill="none" stroke="#00b9ff" stroke-opacity=".6" d="M0 0-3.889-11.968H-16.473L-6.292-19.365-10.181-31.333 0-23.936 10.181-31.333 6.292-19.365 16.473-11.968H3.889Z"/>
</g>
</g>
<g clip-path="url(#clip_14)">
<g>
<path transform="matrix(1,0,0,-1,139.1524,174.50844)" d="M0 0-2.75-8.463H-11.648L-4.449-13.693-7.199-22.156 0-16.926 7.199-22.156 4.449-13.693 11.648-8.463H2.75Z" fill="#00b9ff" fill-opacity=".6"/>
<path transform="matrix(1,0,0,-1,139.1524,174.50844)" stroke-width="1" stroke-linecap="butt" stroke-linejoin="round" fill="none" stroke="#00b9ff" stroke-opacity=".6" d="M0 0-2.75-8.463H-11.648L-4.449-13.693-7.199-22.156 0-16.926 7.199-22.156 4.449-13.693 11.648-8.463H2.75Z"/>
</g>
</g>
<g clip-path="url(#clip_15)">
<g>
<path transform="matrix(1,0,0,-1,78.9465,237.24333)" d="M0 0-1.944-5.984H-8.236L-3.146-9.682-5.09-15.667 0-11.968 5.09-15.667 3.146-9.682 8.236-5.984H1.944Z" fill="#00b9ff" fill-opacity=".6"/>
<path transform="matrix(1,0,0,-1,78.9465,237.24333)" stroke-width="1" stroke-linecap="butt" stroke-linejoin="round" fill="none" stroke="#00b9ff" stroke-opacity=".6" d="M0 0-1.944-5.984H-8.236L-3.146-9.682-5.09-15.667 0-11.968 5.09-15.667 3.146-9.682 8.236-5.984H1.944Z"/>
</g>
</g>
<g clip-path="url(#clip_16)">
<g>
<path transform="matrix(1,0,0,-1,84.0961,280.10795)" d="M0 0-1.375-4.231H-5.824L-2.225-6.847-3.599-11.078 0-8.463 3.599-11.078 2.225-6.847 5.824-4.231H1.375Z" fill="#00b9ff" fill-opacity=".6"/>
<path transform="matrix(1,0,0,-1,84.0961,280.10795)" stroke-width="1" stroke-linecap="butt" stroke-linejoin="round" fill="none" stroke="#00b9ff" stroke-opacity=".6" d="M0 0-1.375-4.231H-5.824L-2.225-6.847-3.599-11.078 0-8.463 3.599-11.078 2.225-6.847 5.824-4.231H1.375Z"/>
</g>
</g>
<g clip-path="url(#clip_17)">
<g>
<path transform="matrix(1,0,0,-1,68.6295,305.20216)" d="M0 0-.972-2.992H-4.118L-1.573-4.841-2.545-7.833 0-5.984 2.545-7.833 1.573-4.841 4.118-2.992H.972Z" fill="#00b9ff" fill-opacity=".6"/>
<path transform="matrix(1,0,0,-1,68.6295,305.20216)" stroke-width="1" stroke-linecap="butt" stroke-linejoin="round" fill="none" stroke="#00b9ff" stroke-opacity=".6" d="M0 0-.972-2.992H-4.118L-1.573-4.841-2.545-7.833 0-5.984 2.545-7.833 1.573-4.841 4.118-2.992H.972Z"/>
</g>
</g>
<g clip-path="url(#clip_18)">
<path transform="matrix(1,0,0,-1,67.6009,364.19914)" stroke-width=".8" stroke-linecap="butt" stroke-dasharray="2.96,1.28" stroke-linejoin="round" fill="none" stroke="#b0b0b0" stroke-opacity=".5" d="M0 0V358.471"/>
</g>
<path transform="matrix(1,0,0,-1,67.6009,364.19914)" d="M0 0V-3.5"/>
<path transform="matrix(1,0,0,-1,67.6009,364.19914)" stroke-width=".8" stroke-linecap="butt" stroke-linejoin="round" fill="none" stroke="#000000" d="M0 0V-3.5"/>
<text xml:space="preserve" transform="matrix(1 0 -0 1 0 408.95045)" font-size="14" font-family="ArialMT"><tspan y="-22.732" x="56.601 64.385">10</tspan></text>
<text xml:space="preserve" transform="matrix(1 0 -0 1 0 408.95045)" font-size="9.8" font-family="ArialMT"><tspan y="-32.489" x="72.417">1</tspan></text>
<g clip-path="url(#clip_19)">
<path transform="matrix(1,0,0,-1,305.6334,364.19914)" stroke-width=".8" stroke-linecap="butt" stroke-dasharray="2.96,1.28" stroke-linejoin="round" fill="none" stroke="#b0b0b0" stroke-opacity=".5" d="M0 0V358.471"/>
</g>
<path transform="matrix(1,0,0,-1,305.6334,364.19914)" d="M0 0V-3.5"/>
<path transform="matrix(1,0,0,-1,305.6334,364.19914)" stroke-width=".8" stroke-linecap="butt" stroke-linejoin="round" fill="none" stroke="#000000" d="M0 0V-3.5"/>
<text xml:space="preserve" transform="matrix(1 0 -0 1 0 408.95045)" font-size="14" font-family="ArialMT"><tspan y="-22.732" x="294.633 302.417">10</tspan></text>
<text xml:space="preserve" transform="matrix(1 0 -0 1 0 408.95045)" font-size="9.8" font-family="ArialMT"><tspan y="-32.489" x="310.449">2</tspan></text>
<g clip-path="url(#clip_20)">
<path transform="matrix(1,0,0,-1,543.6658,364.19914)" stroke-width=".8" stroke-linecap="butt" stroke-dasharray="2.96,1.28" stroke-linejoin="round" fill="none" stroke="#b0b0b0" stroke-opacity=".5" d="M0 0V358.471"/>
</g>
<path transform="matrix(1,0,0,-1,543.6658,364.19914)" d="M0 0V-3.5"/>
<path transform="matrix(1,0,0,-1,543.6658,364.19914)" stroke-width=".8" stroke-linecap="butt" stroke-linejoin="round" fill="none" stroke="#000000" d="M0 0V-3.5"/>
<text xml:space="preserve" transform="matrix(1 0 -0 1 0 408.95045)" font-size="14" font-family="ArialMT"><tspan y="-22.732" x="532.666 540.45">10</tspan></text>
<text xml:space="preserve" transform="matrix(1 0 -0 1 0 408.95045)" font-size="9.8" font-family="ArialMT"><tspan y="-32.489" x="548.482">3</tspan></text>
<path transform="matrix(1,0,0,-1,56.7091,364.19914)" d="M0 0V-2"/>
<path transform="matrix(1,0,0,-1,56.7091,364.19914)" stroke-width=".6" stroke-linecap="butt" stroke-linejoin="round" fill="none" stroke="#000000" d="M0 0V-2"/>
<path transform="matrix(1,0,0,-1,139.2558,364.19914)" d="M0 0V-2"/>
<path transform="matrix(1,0,0,-1,139.2558,364.19914)" stroke-width=".6" stroke-linecap="butt" stroke-linejoin="round" fill="none" stroke="#000000" d="M0 0V-2"/>
<path transform="matrix(1,0,0,-1,181.1713,364.19914)" d="M0 0V-2"/>
<path transform="matrix(1,0,0,-1,181.1713,364.19914)" stroke-width=".6" stroke-linecap="butt" stroke-linejoin="round" fill="none" stroke="#000000" d="M0 0V-2"/>
<path transform="matrix(1,0,0,-1,210.9107,364.19914)" d="M0 0V-2"/>
<path transform="matrix(1,0,0,-1,210.9107,364.19914)" stroke-width=".6" stroke-linecap="butt" stroke-linejoin="round" fill="none" stroke="#000000" d="M0 0V-2"/>
<path transform="matrix(1,0,0,-1,233.9785,364.19914)" d="M0 0V-2"/>
<path transform="matrix(1,0,0,-1,233.9785,364.19914)" stroke-width=".6" stroke-linecap="butt" stroke-linejoin="round" fill="none" stroke="#000000" d="M0 0V-2"/>
<path transform="matrix(1,0,0,-1,252.8262,364.19914)" d="M0 0V-2"/>
<path transform="matrix(1,0,0,-1,252.8262,364.19914)" stroke-width=".6" stroke-linecap="butt" stroke-linejoin="round" fill="none" stroke="#000000" d="M0 0V-2"/>
<path transform="matrix(1,0,0,-1,268.7617,364.19914)" d="M0 0V-2"/>
<path transform="matrix(1,0,0,-1,268.7617,364.19914)" stroke-width=".6" stroke-linecap="butt" stroke-linejoin="round" fill="none" stroke="#000000" d="M0 0V-2"/>
<path transform="matrix(1,0,0,-1,282.5656,364.19914)" d="M0 0V-2"/>
<path transform="matrix(1,0,0,-1,282.5656,364.19914)" stroke-width=".6" stroke-linecap="butt" stroke-linejoin="round" fill="none" stroke="#000000" d="M0 0V-2"/>
<path transform="matrix(1,0,0,-1,294.7416,364.19914)" d="M0 0V-2"/>
<path transform="matrix(1,0,0,-1,294.7416,364.19914)" stroke-width=".6" stroke-linecap="butt" stroke-linejoin="round" fill="none" stroke="#000000" d="M0 0V-2"/>
<path transform="matrix(1,0,0,-1,377.2883,364.19914)" d="M0 0V-2"/>
<path transform="matrix(1,0,0,-1,377.2883,364.19914)" stroke-width=".6" stroke-linecap="butt" stroke-linejoin="round" fill="none" stroke="#000000" d="M0 0V-2"/>
<path transform="matrix(1,0,0,-1,419.2037,364.19914)" d="M0 0V-2"/>
<path transform="matrix(1,0,0,-1,419.2037,364.19914)" stroke-width=".6" stroke-linecap="butt" stroke-linejoin="round" fill="none" stroke="#000000" d="M0 0V-2"/>
<path transform="matrix(1,0,0,-1,448.9432,364.19914)" d="M0 0V-2"/>
<path transform="matrix(1,0,0,-1,448.9432,364.19914)" stroke-width=".6" stroke-linecap="butt" stroke-linejoin="round" fill="none" stroke="#000000" d="M0 0V-2"/>
<path transform="matrix(1,0,0,-1,472.0109,364.19914)" d="M0 0V-2"/>
<path transform="matrix(1,0,0,-1,472.0109,364.19914)" stroke-width=".6" stroke-linecap="butt" stroke-linejoin="round" fill="none" stroke="#000000" d="M0 0V-2"/>
<path transform="matrix(1,0,0,-1,490.8586,364.19914)" d="M0 0V-2"/>
<path transform="matrix(1,0,0,-1,490.8586,364.19914)" stroke-width=".6" stroke-linecap="butt" stroke-linejoin="round" fill="none" stroke="#000000" d="M0 0V-2"/>
<path transform="matrix(1,0,0,-1,506.7941,364.19914)" d="M0 0V-2"/>
<path transform="matrix(1,0,0,-1,506.7941,364.19914)" stroke-width=".6" stroke-linecap="butt" stroke-linejoin="round" fill="none" stroke="#000000" d="M0 0V-2"/>
<path transform="matrix(1,0,0,-1,520.5981,364.19914)" d="M0 0V-2"/>
<path transform="matrix(1,0,0,-1,520.5981,364.19914)" stroke-width=".6" stroke-linecap="butt" stroke-linejoin="round" fill="none" stroke="#000000" d="M0 0V-2"/>
<path transform="matrix(1,0,0,-1,532.774,364.19914)" d="M0 0V-2"/>
<path transform="matrix(1,0,0,-1,532.774,364.19914)" stroke-width=".6" stroke-linecap="butt" stroke-linejoin="round" fill="none" stroke="#000000" d="M0 0V-2"/>
<text xml:space="preserve" transform="matrix(1 0 -0 1 0 408.95045)" font-size="16" font-family="ArialMT"><tspan y="-4.095" x="221.631 233.183 242.079 255.407 264.303 267.855 276.751 284.751 288.303 292.751 300.751 305.199 310.527 322.975 336.303 346.975 358.527 366.527">Complexity (GMACs)</tspan></text>
<g clip-path="url(#clip_21)">
<path transform="matrix(1,0,0,-1,45.8138,364.19914)" stroke-width=".8" stroke-linecap="butt" stroke-dasharray="2.96,1.28" stroke-linejoin="round" fill="none" stroke="#b0b0b0" stroke-opacity=".5" d="M0 0H501.947"/>
</g>
<path transform="matrix(1,0,0,-1,45.8138,364.19914)" d="M0 0H-3.5"/>
<path transform="matrix(1,0,0,-1,45.8138,364.19914)" stroke-width=".8" stroke-linecap="butt" stroke-linejoin="round" fill="none" stroke="#000000" d="M0 0H-3.5"/>
<text xml:space="preserve" transform="matrix(1 0 -0 1 0 408.95045)" font-size="14" font-family="ArialMT"><tspan y="-39.743" x="19.361 27.145 31.037">1.0</tspan></text>
<g clip-path="url(#clip_22)">
<path transform="matrix(1,0,0,-1,45.8138,319.39024)" stroke-width=".8" stroke-linecap="butt" stroke-dasharray="2.96,1.28" stroke-linejoin="round" fill="none" stroke="#b0b0b0" stroke-opacity=".5" d="M0 0H501.947"/>
</g>
<path transform="matrix(1,0,0,-1,45.8138,319.39024)" d="M0 0H-3.5"/>
<path transform="matrix(1,0,0,-1,45.8138,319.39024)" stroke-width=".8" stroke-linecap="butt" stroke-linejoin="round" fill="none" stroke="#000000" d="M0 0H-3.5"/>
<text xml:space="preserve" transform="matrix(1 0 -0 1 0 408.95045)" font-size="14" font-family="ArialMT"><tspan y="-84.552" x="19.361 27.145 31.037">1.5</tspan></text>
<g clip-path="url(#clip_23)">
<path transform="matrix(1,0,0,-1,45.8138,274.58137)" stroke-width=".8" stroke-linecap="butt" stroke-dasharray="2.96,1.28" stroke-linejoin="round" fill="none" stroke="#b0b0b0" stroke-opacity=".5" d="M0 0H501.947"/>
</g>
<path transform="matrix(1,0,0,-1,45.8138,274.58137)" d="M0 0H-3.5"/>
<path transform="matrix(1,0,0,-1,45.8138,274.58137)" stroke-width=".8" stroke-linecap="butt" stroke-linejoin="round" fill="none" stroke="#000000" d="M0 0H-3.5"/>
<text xml:space="preserve" transform="matrix(1 0 -0 1 0 408.95045)" font-size="14" font-family="ArialMT"><tspan y="-129.361" x="19.361 27.145 31.037">2.0</tspan></text>
<g clip-path="url(#clip_24)">
<path transform="matrix(1,0,0,-1,45.8138,229.77245)" stroke-width=".8" stroke-linecap="butt" stroke-dasharray="2.96,1.28" stroke-linejoin="round" fill="none" stroke="#b0b0b0" stroke-opacity=".5" d="M0 0H501.947"/>
</g>
<path transform="matrix(1,0,0,-1,45.8138,229.77245)" d="M0 0H-3.5"/>
<path transform="matrix(1,0,0,-1,45.8138,229.77245)" stroke-width=".8" stroke-linecap="butt" stroke-linejoin="round" fill="none" stroke="#000000" d="M0 0H-3.5"/>
<text xml:space="preserve" transform="matrix(1 0 -0 1 0 408.95045)" font-size="14" font-family="ArialMT"><tspan y="-174.17" x="19.361 27.145 31.037">2.5</tspan></text>
<g clip-path="url(#clip_25)">
<path transform="matrix(1,0,0,-1,45.8138,184.96355)" stroke-width=".8" stroke-linecap="butt" stroke-dasharray="2.96,1.28" stroke-linejoin="round" fill="none" stroke="#b0b0b0" stroke-opacity=".5" d="M0 0H501.947"/>
</g>
<path transform="matrix(1,0,0,-1,45.8138,184.96355)" d="M0 0H-3.5"/>
<path transform="matrix(1,0,0,-1,45.8138,184.96355)" stroke-width=".8" stroke-linecap="butt" stroke-linejoin="round" fill="none" stroke="#000000" d="M0 0H-3.5"/>
<text xml:space="preserve" transform="matrix(1 0 -0 1 0 408.95045)" font-size="14" font-family="ArialMT"><tspan y="-218.979" x="19.361 27.145 31.037">3.0</tspan></text>
<g clip-path="url(#clip_26)">
<path transform="matrix(1,0,0,-1,45.8138,140.15454)" stroke-width=".8" stroke-linecap="butt" stroke-dasharray="2.96,1.28" stroke-linejoin="round" fill="none" stroke="#b0b0b0" stroke-opacity=".5" d="M0 0H501.947"/>
</g>
<path transform="matrix(1,0,0,-1,45.8138,140.15454)" d="M0 0H-3.5"/>
<path transform="matrix(1,0,0,-1,45.8138,140.15454)" stroke-width=".8" stroke-linecap="butt" stroke-linejoin="round" fill="none" stroke="#000000" d="M0 0H-3.5"/>
<text xml:space="preserve" transform="matrix(1 0 -0 1 0 408.95045)" font-size="14" font-family="ArialMT"><tspan y="-263.788" x="19.361 27.145 31.037">3.5</tspan></text>
<g clip-path="url(#clip_27)">
<path transform="matrix(1,0,0,-1,45.8138,95.34564)" stroke-width=".8" stroke-linecap="butt" stroke-dasharray="2.96,1.28" stroke-linejoin="round" fill="none" stroke="#b0b0b0" stroke-opacity=".5" d="M0 0H501.947"/>
</g>
<path transform="matrix(1,0,0,-1,45.8138,95.34564)" d="M0 0H-3.5"/>
<path transform="matrix(1,0,0,-1,45.8138,95.34564)" stroke-width=".8" stroke-linecap="butt" stroke-linejoin="round" fill="none" stroke="#000000" d="M0 0H-3.5"/>
<text xml:space="preserve" transform="matrix(1 0 -0 1 0 408.95045)" font-size="14" font-family="ArialMT"><tspan y="-308.597" x="19.361 27.145 31.037">4.0</tspan></text>
<g clip-path="url(#clip_28)">
<path transform="matrix(1,0,0,-1,45.8138,50.536745)" stroke-width=".8" stroke-linecap="butt" stroke-dasharray="2.96,1.28" stroke-linejoin="round" fill="none" stroke="#b0b0b0" stroke-opacity=".5" d="M0 0H501.947"/>
</g>
<path transform="matrix(1,0,0,-1,45.8138,50.536745)" d="M0 0H-3.5"/>
<path transform="matrix(1,0,0,-1,45.8138,50.536745)" stroke-width=".8" stroke-linecap="butt" stroke-linejoin="round" fill="none" stroke="#000000" d="M0 0H-3.5"/>
<text xml:space="preserve" transform="matrix(1 0 -0 1 0 408.95045)" font-size="14" font-family="ArialMT"><tspan y="-353.406" x="19.361 27.145 31.037">4.5</tspan></text>
<g clip-path="url(#clip_29)">
<path transform="matrix(1,0,0,-1,45.8138,5.727844)" stroke-width=".8" stroke-linecap="butt" stroke-dasharray="2.96,1.28" stroke-linejoin="round" fill="none" stroke="#b0b0b0" stroke-opacity=".5" d="M0 0H501.947"/>
</g>
<path transform="matrix(1,0,0,-1,45.8138,5.727844)" d="M0 0H-3.5"/>
<path transform="matrix(1,0,0,-1,45.8138,5.727844)" stroke-width=".8" stroke-linecap="butt" stroke-linejoin="round" fill="none" stroke="#000000" d="M0 0H-3.5"/>
<text xml:space="preserve" transform="matrix(1 0 -0 1 0 408.95045)" font-size="14" font-family="ArialMT"><tspan y="-398.215" x="19.361 27.145 31.037">5.0</tspan></text>
<text xml:space="preserve" transform="matrix(0 -1 1 0 0 408.95045)" font-size="16" font-family="ArialMT"><tspan y="12.1731" x="201.7526 212.42459 223.09659 233.76859">PESQ</tspan></text>
<g clip-path="url(#clip_30)">
<path transform="matrix(1,0,0,-1,524.9454,71.148838)" stroke-width="1.5" stroke-linecap="butt" stroke-dasharray="5.55,2.4" stroke-linejoin="round" fill="none" stroke="#bf1f61" d="M0 0-.026-33.159-41.941-68.11-41.951-210.602-41.956-265.269"/>
</g>
<g clip-path="url(#clip_31)">
<path transform="matrix(1,0,0,-1,245.6016,147.32404)" stroke-width="1.5" stroke-linecap="butt" stroke-dasharray="5.55,2.4" stroke-linejoin="round" fill="none" stroke="#ffb300" d="M0 0V-31.366-85.137-135.323-172.066"/>
</g>
<g clip-path="url(#clip_32)">
<path transform="matrix(1,0,0,-1,259.7722,312.22084)" stroke-width="1.5" stroke-linecap="butt" stroke-dasharray="5.55,2.4" stroke-linejoin="round" fill="none" stroke="#bbc258" d="M0 0-64.874-6.273"/>
</g>
<g clip-path="url(#clip_33)">
<path transform="matrix(1,0,0,-1,277.7381,89.07245)" stroke-width="1.5" stroke-linecap="butt" stroke-dasharray="5.55,2.4" stroke-linejoin="round" fill="none" stroke="#00b9ff" d="M0 0-73.059-35.847-138.586-97.683-198.792-156.831-193.642-197.159-209.109-220.46"/>
</g>
<path transform="matrix(1,0,0,-1,45.8138,364.19914)" stroke-width=".8" stroke-linecap="square" stroke-miterlimit="10" stroke-linejoin="miter" fill="none" stroke="#000000" d="M0 0V358.471"/>
<path transform="matrix(1,0,0,-1,547.7612,364.19914)" stroke-width=".8" stroke-linecap="square" stroke-miterlimit="10" stroke-linejoin="miter" fill="none" stroke="#000000" d="M0 0V358.471"/>
<path transform="matrix(1,0,0,-1,45.8138,364.19914)" stroke-width=".8" stroke-linecap="square" stroke-miterlimit="10" stroke-linejoin="miter" fill="none" stroke="#000000" d="M0 0H501.947"/>
<path transform="matrix(1,0,0,-1,45.8138,5.727844)" stroke-width=".8" stroke-linecap="square" stroke-miterlimit="10" stroke-linejoin="miter" fill="none" stroke="#000000" d="M0 0H501.947"/>
<text xml:space="preserve" transform="matrix(1 0 -0 1 0 408.95045)" font-size="14" font-family="ArialMT"><tspan y="-332.184" x="453.283 461.067 468.85099 475.85099 483.63499 491.41899">24kbps</tspan><tspan y="-297.733" x="460.041 467.82499 475.60899 482.60899 490.39299 498.17698">12kbps</tspan><tspan y="-264.397" x="431.06098 438.84498 445.84498 453.62898 461.41297">6kbps</tspan><tspan y="-122.87401" x="435.25099 443.03498 450.03498 457.81898 465.60298">3kbps</tspan></text>
<text xml:space="preserve" transform="matrix(1 0 -0 1 0 408.95045)" font-size="14" font-family="ArialMT"><tspan y="-67.238" x="426.179 433.96299 437.85499 445.63899 452.63899 460.42298 468.20698">1.5kbps</tspan></text>
<text xml:space="preserve" transform="matrix(1 0 -0 1 0 408.95045)" font-size="14" font-family="ArialMT"><tspan y="-257.301" x="272.462 280.246 288.03 295.03 302.814 310.598">24kbps</tspan><tspan y="-224.31999" x="265.032 272.816 280.6 287.6 295.384 303.168">12kbps</tspan></text>
<text xml:space="preserve" transform="matrix(1 0 -0 1 0 408.95045)" font-size="14" font-family="ArialMT"><tspan y="-170.226" x="259.232 267.016 274.016 281.8 289.58399">6kbps</tspan></text>
<text xml:space="preserve" transform="matrix(1 0 -0 1 0 408.95045)" font-size="14" font-family="ArialMT"><tspan y="-88.092" x="265.693 273.477 277.369">0.9</tspan></text>
<text xml:space="preserve" transform="matrix(1 0 -0 1 0 408.95045)" font-size="14" font-family="ArialMT"><tspan y="-88.092" x="285.15299 292.15299 299.93699 307.72099">kbps</tspan></text>
<text xml:space="preserve" transform="matrix(1 0 -0 1 0 408.95045)" font-size="14" font-family="ArialMT"><tspan y="-333.319" x="228.687 236.471 244.25499 251.25499 259.039 266.823">24kbps</tspan><tspan y="-294.888" x="155.95099 163.73499 171.51898 178.51898 186.30298 194.08698">12kbps</tspan><tspan y="-232.08301" x="99.48299 107.26699 114.26699 122.050998 129.83499">6kbps</tspan></text>
<text xml:space="preserve" transform="matrix(1 0 -0 1 0 408.95045)" font-size="14" font-family="ArialMT"><tspan y="-92.21" x="72.873 80.657009 84.549 92.33301">0.75</tspan></text>
<text xml:space="preserve" transform="matrix(1 0 -0 1 0 408.95045)" font-size="14" font-family="ArialMT"><tspan y="-92.21" x="100.11701 107.11701 114.90102 122.68502">kbps</tspan></text>
<g>
<path transform="matrix(1,0,0,-1,55.6138,96.115329)" d="M0 0H132.238C134.104 0 135.037 .933 135.037 2.8V80.588C135.037 82.454 134.104 83.388 132.238 83.388H0C-1.867 83.388-2.8 82.454-2.8 80.588V2.8C-2.8 .933-1.867 0 0 0Z" fill="#ffffff" fill-opacity=".8"/>
<path transform="matrix(1,0,0,-1,55.6138,96.115329)" stroke-width="1" stroke-linecap="butt" stroke-miterlimit="10" stroke-linejoin="miter" fill="none" stroke="#cccccc" stroke-opacity=".8" d="M0 0H132.238C134.104 0 135.037 .933 135.037 2.8V80.588C135.037 82.454 134.104 83.388 132.238 83.388H0C-1.867 83.388-2.8 82.454-2.8 80.588V2.8C-2.8 .933-1.867 0 0 0Z"/>
</g>
<g>
<path transform="matrix(1,0,0,-1,72.4137,29.668427)" d="M0 0C1.326 0 2.598 .527 3.536 1.464 4.473 2.402 5 3.674 5 5 5 6.326 4.473 7.598 3.536 8.536 2.598 9.473 1.326 10 0 10-1.326 10-2.598 9.473-3.536 8.536-4.473 7.598-5 6.326-5 5-5 3.674-4.473 2.402-3.536 1.464-2.598 .527-1.326 0 0 0Z" fill="#bf1f61" fill-opacity=".6"/>
<path transform="matrix(1,0,0,-1,72.4137,29.668427)" stroke-width="1" stroke-linecap="butt" stroke-linejoin="round" fill="none" stroke="#bf1f61" stroke-opacity=".6" d="M0 0C1.326 0 2.598 .527 3.536 1.464 4.473 2.402 5 3.674 5 5 5 6.326 4.473 7.598 3.536 8.536 2.598 9.473 1.326 10 0 10-1.326 10-2.598 9.473-3.536 8.536-4.473 7.598-5 6.326-5 5-5 3.674-4.473 2.402-3.536 1.464-2.598 .527-1.326 0 0 0Z"/>
</g>
<text xml:space="preserve" transform="matrix(1 0 -0 1 0 408.95045)" font-size="14" font-family="ArialMT"><tspan y="-380.607" x="97.614 107.722 117.06">DAC</tspan></text>
<g>
<path transform="matrix(1,0,0,-1,72.4137,49.465333)" d="M0 0C1.326 0 2.598 .527 3.536 1.464 4.473 2.402 5 3.674 5 5 5 6.326 4.473 7.598 3.536 8.536 2.598 9.473 1.326 10 0 10-1.326 10-2.598 9.473-3.536 8.536-4.473 7.598-5 6.326-5 5-5 3.674-4.473 2.402-3.536 1.464-2.598 .527-1.326 0 0 0Z" fill="#ffb300" fill-opacity=".6"/>
<path transform="matrix(1,0,0,-1,72.4137,49.465333)" stroke-width="1" stroke-linecap="butt" stroke-linejoin="round" fill="none" stroke="#ffb300" stroke-opacity=".6" d="M0 0C1.326 0 2.598 .527 3.536 1.464 4.473 2.402 5 3.674 5 5 5 6.326 4.473 7.598 3.536 8.536 2.598 9.473 1.326 10 0 10-1.326 10-2.598 9.473-3.536 8.536-4.473 7.598-5 6.326-5 5-5 3.674-4.473 2.402-3.536 1.464-2.598 .527-1.326 0 0 0Z"/>
</g>
<text xml:space="preserve" transform="matrix(1 0 -0 1 0 408.95045)" font-size="14" font-family="ArialMT"><tspan y="-360.81" x="97.614 106.951999 114.736 121.736 129.52 137.304 145.088">Encodec</tspan></text>
<g>
<path transform="matrix(1,0,0,-1,72.4137,69.262149)" d="M0 0C1.326 0 2.598 .527 3.536 1.464 4.473 2.402 5 3.674 5 5 5 6.326 4.473 7.598 3.536 8.536 2.598 9.473 1.326 10 0 10-1.326 10-2.598 9.473-3.536 8.536-4.473 7.598-5 6.326-5 5-5 3.674-4.473 2.402-3.536 1.464-2.598 .527-1.326 0 0 0Z" fill="#bbc258" fill-opacity=".6"/>
<path transform="matrix(1,0,0,-1,72.4137,69.262149)" stroke-width="1" stroke-linecap="butt" stroke-linejoin="round" fill="none" stroke="#bbc258" stroke-opacity=".6" d="M0 0C1.326 0 2.598 .527 3.536 1.464 4.473 2.402 5 3.674 5 5 5 6.326 4.473 7.598 3.536 8.536 2.598 9.473 1.326 10 0 10-1.326 10-2.598 9.473-3.536 8.536-4.473 7.598-5 6.326-5 5-5 3.674-4.473 2.402-3.536 1.464-2.598 .527-1.326 0 0 0Z"/>
</g>
<text xml:space="preserve" transform="matrix(1 0 -0 1 0 408.95045)" font-size="14" font-family="ArialMT"><tspan y="-341.013" x="97.614 110.31439 118.0984 125.0984 132.10549 139.88948 146.88948 154.67348 162.45748 165.56548 172.56548 180.34947">WavTokenizer</tspan></text>
<g>
<path transform="matrix(1,0,0,-1,72.4137,79.05905)" d="M0 0-1.123-3.455H-4.755L-1.816-5.59-2.939-9.045 0-6.91 2.939-9.045 1.816-5.59 4.755-3.455H1.123Z" fill="#00b9ff" fill-opacity=".6"/>
<path transform="matrix(1,0,0,-1,72.4137,79.05905)" stroke-width="1" stroke-linecap="butt" stroke-linejoin="round" fill="none" stroke="#00b9ff" stroke-opacity=".6" d="M0 0-1.123-3.455H-4.755L-1.816-5.59-2.939-9.045 0-6.91 2.939-9.045 1.816-5.59 4.755-3.455H1.123Z"/>
</g>
<text xml:space="preserve" transform="matrix(1 0 -0 1 0 408.95045)" font-size="14" font-family="ArialMT"><tspan y="-321.216" x="97.614 108.506 116.29 120.952">Ours</tspan></text>
<text xml:space="preserve" transform="matrix(1 0 -0 1 0 408.95045)" font-size="14" font-family="ArialMT"><tspan y="-80.904" x="140.708 148.49199 152.38399">0.5</tspan></text>
<text xml:space="preserve" transform="matrix(1 0 -0 1 0 408.95045)" font-size="14" font-family="ArialMT"><tspan y="-80.904" x="160.16799 167.16799 174.95198 182.73598">kbps</tspan></text>
<text xml:space="preserve" transform="matrix(1 0 -0 1 0 408.95045)" font-size="14" font-family="ArialMT"><tspan y="-157.752" x="87.409 95.193 102.193 109.977008 117.76101">3kbps</tspan></text>
<text xml:space="preserve" transform="matrix(1 0 -0 1 0 408.95045)" font-size="14" font-family="ArialMT"><tspan y="-117.406" x="90.316 98.100009 101.992008">1.5</tspan></text>
<text xml:space="preserve" transform="matrix(1 0 -0 1 0 408.95045)" font-size="14" font-family="ArialMT"><tspan y="-117.406" x="109.77601 116.77601 124.56001 132.34401">kbps</tspan></text>
<text xml:space="preserve" transform="matrix(1 0 -0 1 0 408.95045)" font-size="14" font-family="ArialMT"><tspan y="-121.332" x="255.679 263.463 270.463 278.247 286.031">3kbps</tspan></text>
<text xml:space="preserve" transform="matrix(1 0 -0 1 0 408.95045)" font-size="14" font-family="ArialMT"><tspan y="-69.356" x="223.376 231.16 235.052">1.5</tspan></text>
<text xml:space="preserve" transform="matrix(1 0 -0 1 0 408.95045)" font-size="14" font-family="ArialMT"><tspan y="-69.356" x="242.836 249.836 257.62 265.404">kbps</tspan></text>
</svg>
